<?xml version="1.0" standalone="no"?>
<!DOCTYPE svg PUBLIC "-//W3C//DTD SVG 20010904//EN"
 "http://www.w3.org/TR/2001/REC-SVG-20010904/DTD/svg10.dtd">
<svg version="1.0" xmlns="http://www.w3.org/2000/svg"
 width="72.000000pt" height="72.000000pt" viewBox="0 0 72.000000 72.000000"
 preserveAspectRatio="xMidYMid meet">
<metadata>
Created by potrace 1.14, written by Peter Selinger 2001-2017
</metadata>
<g transform="translate(0.000000,72.000000) scale(0.100000,-0.100000)"
fill="#000000" stroke="none">
<path d="M63 664 l-32 -26 -1 -264 c-1 -275 2 -292 44 -326 19 -16 50 -18 289
-18 l267 0 30 28 29 28 0 272 0 271 -30 31 -31 30 -267 0 -267 0 -31 -26z
m117 -79 l0 -45 -45 0 c-44 0 -45 1 -45 33 0 42 15 57 57 57 32 0 33 -1 33
-45z m298 -75 l2 -120 -119 0 -119 0 -1 120 -2 120 119 0 118 0 2 -120z m140
108 c7 -7 12 -27 12 -45 0 -33 0 -33 -45 -31 l-45 1 0 44 c0 42 1 43 33 43 18
0 38 -5 45 -12z m-438 -183 l0 -45 -45 0 -45 0 0 45 0 45 45 0 45 0 0 -45z
m448 -2 l3 -43 -45 0 -46 0 0 38 c0 48 6 54 50 50 34 -3 35 -5 38 -45z m-448
-147 l0 -44 -42 2 -43 1 -3 43 -3 42 45 0 46 0 0 -44z m298 -76 l1 -120 -118
0 -118 0 0 43 c-1 23 -2 47 -3 52 -1 6 -2 40 -1 78 l1 67 119 0 118 0 1 -120z
m152 74 l0 -45 -42 3 c-43 3 -43 3 -46 46 l-3 42 45 0 46 0 0 -46z m-450 -149
c0 -44 -1 -45 -33 -45 -18 0 -38 5 -45 12 -7 7 -12 27 -12 45 0 32 1 33 45 33
l45 0 0 -45z m450 12 c0 -18 -5 -38 -12 -45 -7 -7 -27 -12 -45 -12 -32 0 -33
1 -33 45 l0 45 45 0 c44 0 45 -1 45 -33z"/>
</g>
</svg>
